<?xml version="1.0" encoding="UTF-8" standalone="no"?>
<!-- Created with Inkscape (http://www.inkscape.org/) -->

<svg
   xmlns:dc="http://purl.org/dc/elements/1.1/"
   xmlns:cc="http://creativecommons.org/ns#"
   xmlns:rdf="http://www.w3.org/1999/02/22-rdf-syntax-ns#"
   xmlns:svg="http://www.w3.org/2000/svg"
   xmlns="http://www.w3.org/2000/svg"
   xmlns:sodipodi="http://sodipodi.sourceforge.net/DTD/sodipodi-0.dtd"
   xmlns:inkscape="http://www.inkscape.org/namespaces/inkscape"
   width="300"
   height="100"
   viewBox="0 0 79.374998 26.458334"
   version="1.1"
   id="svg8"
   sodipodi:docname="herschel-labs.svg"
   inkscape:version="0.92.2 (5c3e80d, 2017-08-06)">
  <defs
     id="defs2" />
  <sodipodi:namedview
     id="base"
     pagecolor="#ffffff"
     bordercolor="#666666"
     borderopacity="1.0"
     inkscape:pageopacity="0.0"
     inkscape:pageshadow="2"
     inkscape:zoom="3.959798"
     inkscape:cx="193.76176"
     inkscape:cy="49.195427"
     inkscape:document-units="mm"
     inkscape:current-layer="layer2"
     showgrid="false"
     units="px"
     inkscape:snap-global="false"
     inkscape:snap-bbox="true"
     inkscape:bbox-paths="true"
     inkscape:bbox-nodes="true"
     inkscape:snap-bbox-edge-midpoints="true"
     inkscape:snap-bbox-midpoints="true"
     inkscape:snap-page="true"
     inkscape:snap-text-baseline="true"
     inkscape:snap-object-midpoints="false"
     inkscape:snap-center="true"
     inkscape:snap-midpoints="true"
     inkscape:snap-smooth-nodes="true"
     inkscape:snap-intersection-paths="true"
     inkscape:object-paths="true"
     inkscape:window-width="1920"
     inkscape:window-height="1017"
     inkscape:window-x="-8"
     inkscape:window-y="118"
     inkscape:window-maximized="1" />
  <metadata
     id="metadata5">
    <rdf:RDF>
      <cc:Work
         rdf:about="">
        <dc:format>image/svg+xml</dc:format>
        <dc:type
           rdf:resource="http://purl.org/dc/dcmitype/StillImage" />
        <dc:title></dc:title>
      </cc:Work>
    </rdf:RDF>
  </metadata>
  <g
     inkscape:groupmode="layer"
     id="layer2"
     inkscape:label="Vrstva 2">
    <g
       aria-label="Herschel Labs"
       transform="scale(1.0039731,-0.99604263)"
       style="font-style:normal;font-weight:normal;font-size:7.47644424px;line-height:1.25;font-family:sans-serif;letter-spacing:0px;word-spacing:0px;fill:#ffffff;fill-opacity:0.28070176;stroke:none;stroke-width:0.18691105"
       id="text817-5">
      <path
         d="m 13.266568,-20.606308 q 0,-0.134576 -0.134576,-0.134576 h -0.538304 q -0.134576,0 -0.134576,-0.134576 0,-0.134576 0.134576,-0.134576 h 1.70463 q 0.134576,0 0.134576,0.134576 0,0.134576 -0.134576,0.134576 h -0.628022 q -0.134576,0 -0.134576,0.134576 v 5.472757 q 0,0.134576 0.134576,0.134576 h 0.628022 q 0.134576,0 0.134576,0.134576 0,0.134576 -0.134576,0.134576 h -1.70463 q -0.134576,0 -0.134576,-0.134576 0,-0.134576 0.134576,-0.134576 h 0.538304 q 0.134576,0 0.134576,-0.134576 v -2.512085 q 0,-0.134576 -0.134576,-0.134576 H 9.5432991 q -0.134576,0 -0.134576,0.134576 v 2.512085 q 0,0.134576 0.134576,0.134576 h 0.5383039 q 0.134576,0 0.134576,0.134576 0,0.134576 -0.134576,0.134576 H 8.3769738 q -0.134576,0 -0.134576,-0.134576 0,-0.134576 0.134576,-0.134576 h 0.6280213 q 0.134576,0 0.134576,-0.134576 v -5.472757 q 0,-0.134576 -0.134576,-0.134576 H 8.3769738 q -0.134576,0 -0.134576,-0.134576 0,-0.134576 0.134576,-0.134576 h 1.7046292 q 0.134576,0 0.134576,0.134576 0,0.134576 -0.134576,0.134576 H 9.5432991 q -0.134576,0 -0.134576,0.134576 v 2.422368 q 0,0.134576 0.134576,0.134576 h 3.5886929 q 0.134576,0 0.134576,-0.134576 z"
         style="font-style:normal;font-variant:normal;font-weight:normal;font-stretch:normal;font-size:8.97173309px;font-family:'Nixie One';-inkscape-font-specification:'Nixie One';fill:#ffffff;fill-opacity:0.28070176;stroke-width:0.18691105"
         id="path869" />
      <path
         d="m 17.168431,-14.909258 q 0.349898,0 0.610078,-0.0628 0.269152,-0.07177 0.457558,-0.170463 0.197378,-0.09869 0.331954,-0.20635 0.143548,-0.116632 0.242237,-0.20635 0.0628,-0.05383 0.107661,-0.02692 0.04486,0.01794 0.08972,0.0628 0.08972,0.107661 -0.009,0.188407 -0.116632,0.107661 -0.287095,0.233265 -0.161491,0.116632 -0.385785,0.224293 -0.215321,0.09869 -0.502417,0.161491 -0.287095,0.07177 -0.654936,0.07177 -0.951004,0 -1.525195,-0.645965 -0.583162,-0.663908 -0.583162,-1.686685 0,-1.022778 0.583162,-1.686686 0.574191,-0.645965 1.525195,-0.645965 0.924088,0 1.516223,0.592134 0.592134,0.592135 0.592134,1.426506 v 0.134576 q 0,0.269152 -0.269152,0.269152 h -3.534863 q -0.152519,0 -0.134576,0.134576 0.05383,0.780541 0.502417,1.282958 0.511389,0.556247 1.327817,0.556247 z m -1.821262,-2.377509 q -0.01794,0.134576 0.125604,0.134576 h 3.400287 q 0.134576,0 0.134576,-0.134576 0,-0.717739 -0.529332,-1.229127 -0.520361,-0.520361 -1.309873,-0.520361 -0.816428,0 -1.327817,0.574191 -0.421671,0.475502 -0.493445,1.175297 z"
         style="font-style:normal;font-variant:normal;font-weight:normal;font-stretch:normal;font-size:8.97173309px;font-family:'Nixie One';-inkscape-font-specification:'Nixie One';fill:#ffffff;fill-opacity:0.28070176;stroke-width:0.18691105"
         id="path871" />
      <path
         d="m 23.40743,-19.036255 q -0.421671,0 -0.771569,0.125604 -0.349897,0.116633 -0.628021,0.314011 -0.278124,0.197378 -0.493445,0.448587 -0.20635,0.251208 -0.349898,0.502417 v 2.512085 q 0,0.134576 0.134576,0.134576 h 0.717739 q 0.134576,0 0.134576,0.134576 0,0.134576 -0.134576,0.134576 h -1.884064 q -0.134576,0 -0.134576,-0.134576 0,-0.134576 0.134576,-0.134576 h 0.628021 q 0.134576,0 0.134576,-0.134576 v -3.678411 q 0,-0.134576 -0.134576,-0.134576 h -0.628021 q -0.134576,0 -0.134576,-0.134576 0,-0.134576 0.134576,-0.134576 h 0.897173 q 0.134576,0 0.134576,0.134576 v 0.708767 q 0,0.08972 0.03589,0.116633 0.03589,0.02692 0.107661,-0.05383 0.161491,-0.188406 0.376813,-0.367841 0.215321,-0.179434 0.475502,-0.31401 0.269152,-0.143548 0.57419,-0.224294 0.314011,-0.08972 0.67288,-0.08972 h 0.439615 q 0.134576,0 0.134576,0.134576 v 1.121467 q 0,0.134576 -0.134576,0.134576 -0.134576,0 -0.134576,-0.134576 v -0.852315 q 0,-0.134576 -0.134576,-0.134576 z"
         style="font-style:normal;font-variant:normal;font-weight:normal;font-stretch:normal;font-size:8.97173309px;font-family:'Nixie One';-inkscape-font-specification:'Nixie One';fill:#ffffff;fill-opacity:0.28070176;stroke-width:0.18691105"
         id="path873" />
      <path
         d="m 26.83295,-14.909258 q 0.780541,0 1.19324,-0.269152 0.421672,-0.278123 0.421672,-0.717738 0,-0.233265 -0.107661,-0.376813 -0.09869,-0.143548 -0.278124,-0.242237 -0.197378,-0.107661 -0.46653,-0.170463 -0.269152,-0.0628 -0.574191,-0.107661 -0.305039,-0.05383 -0.619049,-0.09869 -0.314011,-0.04486 -0.592135,-0.116632 -0.215321,-0.0628 -0.412699,-0.143548 -0.188407,-0.08972 -0.331955,-0.224293 -0.134576,-0.134576 -0.215321,-0.314011 -0.08075,-0.188406 -0.08075,-0.448587 0,-0.215321 0.116633,-0.421671 0.116632,-0.215322 0.340926,-0.376813 0.233265,-0.170463 0.565219,-0.269152 0.331954,-0.09869 0.771569,-0.09869 0.287095,0 0.529332,0.07177 0.251209,0.07177 0.448587,0.179435 0.20635,0.10766 0.349897,0.224293 0.15252,0.116632 0.233265,0.197378 0.08075,0.08972 0.107661,0.03589 0.03589,-0.05383 0.03589,-0.125604 v -0.35887 q 0,-0.134576 0.134576,-0.134576 0.134576,0 0.134576,0.134576 v 1.435478 q 0,0.134576 -0.134576,0.134576 -0.134576,0 -0.134576,-0.134576 v -0.448587 q -0.197378,-0.26018 -0.448586,-0.46653 -0.224294,-0.179435 -0.538304,-0.322983 -0.314011,-0.152519 -0.717739,-0.152519 -0.385785,0 -0.67288,0.08075 -0.287096,0.07177 -0.475502,0.197378 -0.188406,0.125604 -0.287095,0.287095 -0.08972,0.161491 -0.08972,0.331954 0,0.242237 0.08972,0.403728 0.09869,0.15252 0.269152,0.260181 0.197378,0.125604 0.46653,0.206349 0.269152,0.07177 0.574191,0.125605 0.305039,0.04486 0.619049,0.08972 0.314011,0.04486 0.601106,0.107661 0.224294,0.05383 0.4127,0.134576 0.197378,0.08075 0.340926,0.20635 0.143548,0.116632 0.224293,0.296067 0.08075,0.170463 0.08075,0.4127 0,0.538304 -0.475502,0.897173 -0.46653,0.358869 -1.408562,0.358869 -0.269152,0 -0.520361,-0.0628 -0.242236,-0.0628 -0.457558,-0.152519 -0.20635,-0.09869 -0.385785,-0.215322 -0.170462,-0.125604 -0.287095,-0.242237 -0.08972,-0.08972 -0.116633,-0.03589 -0.02692,0.05383 -0.02692,0.125605 v 0.358869 q 0,0.134576 -0.134576,0.134576 -0.134576,0 -0.134576,-0.134576 v -1.435477 q 0,-0.134576 0.134576,-0.134576 0.134576,0 0.134576,0.134576 v 0.448586 q 0.188407,0.269152 0.448587,0.475502 0.224293,0.179435 0.556247,0.322982 0.331954,0.143548 0.789513,0.143548 z"
         style="font-style:normal;font-variant:normal;font-weight:normal;font-stretch:normal;font-size:8.97173309px;font-family:'Nixie One';-inkscape-font-specification:'Nixie One';fill:#ffffff;fill-opacity:0.28070176;stroke-width:0.18691105"
         id="path875" />
      <path
         d="m 31.773572,-14.640106 q -0.951004,0 -1.525195,-0.645965 -0.583162,-0.654936 -0.583162,-1.686685 0,-1.03175 0.565219,-1.677714 0.565219,-0.654937 1.408562,-0.654937 0.888202,0 1.561082,0.67288 0.08075,0.07177 0.10766,0.03589 0.03589,-0.03589 0.03589,-0.125604 v -0.35887 q 0,-0.134576 0.134576,-0.134576 0.134576,0 0.134576,0.134576 v 1.435478 q 0,0.134576 -0.134576,0.134576 -0.134576,0 -0.134576,-0.134576 v -0.448587 q -0.215321,-0.278124 -0.448586,-0.46653 -0.583163,-0.475502 -1.256043,-0.475502 -0.72671,0 -1.220156,0.574191 -0.484473,0.583163 -0.484473,1.489308 0,0.942032 0.511389,1.507251 0.511388,0.556247 1.327816,0.556247 0.349898,0 0.610078,-0.0628 0.269152,-0.07177 0.457558,-0.170463 0.197378,-0.09869 0.331954,-0.20635 0.143548,-0.116632 0.242237,-0.20635 0.0628,-0.05383 0.107661,-0.02692 0.04486,0.01794 0.08972,0.0628 0.08972,0.107661 -0.009,0.188407 -0.116633,0.107661 -0.287096,0.233265 -0.161491,0.116632 -0.385784,0.224293 -0.215322,0.09869 -0.502417,0.161491 -0.287096,0.07177 -0.654937,0.07177 z"
         style="font-style:normal;font-variant:normal;font-weight:normal;font-stretch:normal;font-size:8.97173309px;font-family:'Nixie One';-inkscape-font-specification:'Nixie One';fill:#ffffff;fill-opacity:0.28070176;stroke-width:0.18691105"
         id="path877" />
      <path
         d="m 34.436634,-14.998975 h 0.628021 q 0.134576,0 0.134576,-0.134576 v -5.472757 q 0,-0.134576 -0.134576,-0.134576 h -0.628021 q -0.134576,0 -0.134576,-0.134576 0,-0.134576 0.134576,-0.134576 h 0.897173 q 0.134576,0 0.134576,0.134576 v 2.296763 q 0,0.08972 0.03589,0.125605 0.03589,0.03589 0.107661,-0.03589 0.72671,-0.816428 1.60594,-0.816428 0.8254,0 1.282958,0.46653 0.46653,0.457559 0.46653,1.327817 v 2.377509 q 0,0.134576 0.134576,0.134576 h 0.628022 q 0.134576,0 0.134576,0.134576 0,0.134576 -0.134576,0.134576 h -1.70463 q -0.134576,0 -0.134576,-0.134576 0,-0.134576 0.134576,-0.134576 h 0.538304 q 0.134576,0 0.134576,-0.134576 v -2.377509 q 0,-0.762598 -0.394756,-1.13941 -0.394756,-0.385785 -1.08558,-0.385785 -0.67288,0 -1.282958,0.610078 -0.26018,0.269152 -0.46653,0.601106 v 2.69152 q 0,0.134576 0.134576,0.134576 h 0.538304 q 0.134576,0 0.134576,0.134576 0,0.134576 -0.134576,0.134576 h -1.704629 q -0.134576,0 -0.134576,-0.134576 0,-0.134576 0.134576,-0.134576 z"
         style="font-style:normal;font-variant:normal;font-weight:normal;font-stretch:normal;font-size:8.97173309px;font-family:'Nixie One';-inkscape-font-specification:'Nixie One';fill:#ffffff;fill-opacity:0.28070176;stroke-width:0.18691105"
         id="path879" />
      <path
         d="m 42.497805,-14.909258 q 0.349898,0 0.610078,-0.0628 0.269152,-0.07177 0.457558,-0.170463 0.197379,-0.09869 0.331955,-0.20635 0.143547,-0.116632 0.242236,-0.20635 0.0628,-0.05383 0.107661,-0.02692 0.04486,0.01794 0.08972,0.0628 0.08972,0.107661 -0.009,0.188407 -0.116633,0.107661 -0.287096,0.233265 -0.161491,0.116632 -0.385784,0.224293 -0.215322,0.09869 -0.502417,0.161491 -0.287096,0.07177 -0.654937,0.07177 -0.951003,0 -1.525194,-0.645965 -0.583163,-0.663908 -0.583163,-1.686685 0,-1.022778 0.583163,-1.686686 0.574191,-0.645965 1.525194,-0.645965 0.924089,0 1.516223,0.592134 0.592135,0.592135 0.592135,1.426506 v 0.134576 q 0,0.269152 -0.269152,0.269152 h -3.534863 q -0.15252,0 -0.134576,0.134576 0.05383,0.780541 0.502417,1.282958 0.511389,0.556247 1.327816,0.556247 z m -1.821262,-2.377509 q -0.01794,0.134576 0.125605,0.134576 h 3.400287 q 0.134576,0 0.134576,-0.134576 0,-0.717739 -0.529333,-1.229127 -0.52036,-0.520361 -1.309873,-0.520361 -0.816427,0 -1.327816,0.574191 -0.421672,0.475502 -0.493446,1.175297 z"
         style="font-style:normal;font-variant:normal;font-weight:normal;font-stretch:normal;font-size:8.97173309px;font-family:'Nixie One';-inkscape-font-specification:'Nixie One';fill:#ffffff;fill-opacity:0.28070176;stroke-width:0.18691105"
         id="path881" />
      <path
         d="m 45.318365,-14.729823 q -0.134576,0 -0.134576,-0.134576 0,-0.134576 0.134576,-0.134576 h 0.628021 q 0.134576,0 0.134576,-0.134576 v -5.472757 q 0,-0.134576 -0.134576,-0.134576 h -0.628021 q -0.134576,0 -0.134576,-0.134576 0,-0.134576 0.134576,-0.134576 h 0.897173 q 0.134576,0 0.134576,0.134576 v 5.741909 q 0,0.134576 0.134576,0.134576 h 0.628022 q 0.134576,0 0.134576,0.134576 0,0.134576 -0.134576,0.134576 z"
         style="font-style:normal;font-variant:normal;font-weight:normal;font-stretch:normal;font-size:8.97173309px;font-family:'Nixie One';-inkscape-font-specification:'Nixie One';fill:#ffffff;fill-opacity:0.28070176;stroke-width:0.18691105"
         id="path883" />
      <path
         d="m 50.46702,-14.729823 q -0.134576,0 -0.134576,-0.134576 0,-0.134576 0.134576,-0.134576 h 0.628021 q 0.134576,0 0.134576,-0.134576 v -5.472757 q 0,-0.134576 -0.134576,-0.134576 H 50.46702 q -0.134576,0 -0.134576,-0.134576 0,-0.134576 0.134576,-0.134576 h 1.973781 q 0.134576,0 0.134576,0.134576 0,0.134576 -0.134576,0.134576 h -0.807456 q -0.134576,0 -0.134576,0.134576 v 5.472757 q 0,0.134576 0.134576,0.134576 H 54.5043 q 0.134576,0 0.134576,-0.134576 v -0.986891 q 0,-0.134576 0.134576,-0.134576 0.134576,0 0.134576,0.134576 v 1.256043 q 0,0.134576 -0.134576,0.134576 z"
         style="font-style:normal;font-variant:normal;font-weight:normal;font-stretch:normal;font-size:8.97173309px;font-family:'Nixie One';-inkscape-font-specification:'Nixie One';fill:#ffffff;fill-opacity:0.28070176;stroke-width:0.18691105"
         id="path885" />
      <path
         d="m 58.883626,-16.927898 q 0,-0.134576 -0.134576,-0.134576 h -1.480335 q -0.780541,0 -1.157354,0.305039 -0.367841,0.305039 -0.367841,0.771569 0,0.475502 0.340926,0.780541 0.349897,0.296067 1.004834,0.296067 0.735682,0 1.336788,-0.601106 0.125604,-0.125604 0.242237,-0.278124 0.116632,-0.152519 0.215321,-0.331954 z m -1.39959,-2.377509 q 0.753626,0 1.211184,0.430643 0.457558,0.421672 0.457558,1.049693 v 2.69152 q 0,0.134576 0.134576,0.134576 h 0.628022 q 0.134576,0 0.134576,0.134576 0,0.134576 -0.134576,0.134576 h -0.897174 q -0.134576,0 -0.134576,-0.134576 v -0.502417 q 0,-0.08972 -0.03589,-0.125604 -0.03589,-0.03589 -0.107661,0.03589 -0.242237,0.305038 -0.654937,0.556247 -0.448586,0.26018 -0.995862,0.26018 -0.394756,0 -0.699795,-0.09869 -0.296068,-0.107661 -0.502417,-0.287095 -0.20635,-0.179435 -0.314011,-0.421672 -0.09869,-0.251208 -0.09869,-0.538304 0,-0.278123 0.116632,-0.52036 0.125605,-0.251209 0.35887,-0.430643 0.233265,-0.179435 0.565219,-0.287096 0.331954,-0.107661 0.753626,-0.107661 h 1.480335 q 0.134576,0 0.134576,-0.134576 v -0.358869 q 0,-0.251209 -0.10766,-0.475502 -0.09869,-0.224293 -0.287096,-0.385784 -0.179434,-0.161492 -0.439615,-0.251209 -0.26018,-0.09869 -0.565219,-0.09869 -0.538304,0 -0.906145,0.161491 -0.367841,0.15252 -0.547276,0.296067 -0.116632,0.08972 -0.188406,-0.01794 -0.08075,-0.107661 0.01794,-0.179435 0.242237,-0.197378 0.645965,-0.358869 0.403728,-0.170463 0.977919,-0.170463 z"
         style="font-style:normal;font-variant:normal;font-weight:normal;font-stretch:normal;font-size:8.97173309px;font-family:'Nixie One';-inkscape-font-specification:'Nixie One';fill:#ffffff;fill-opacity:0.28070176;stroke-width:0.18691105"
         id="path887" />
      <path
         d="m 61.371178,-16.120442 q 0.20635,0.35887 0.457558,0.610078 0.601106,0.601106 1.336788,0.601106 0.762598,0 1.229128,-0.538304 0.475502,-0.547275 0.475502,-1.570053 0,-0.924089 -0.56522,-1.426506 -0.565219,-0.502417 -1.587996,-0.502417 h -1.211184 q -0.134576,0 -0.134576,0.134576 z m 0,-3.229824 q 0,0.134576 0.134576,0.134576 h 1.211184 q 0.574191,0 1.022777,0.15252 0.448587,0.152519 0.753626,0.439615 0.31401,0.278123 0.475502,0.690823 0.170463,0.403728 0.170463,0.915117 0,0.565219 -0.143548,1.013806 -0.134576,0.439615 -0.394756,0.744654 -0.260181,0.296067 -0.628022,0.457558 -0.358869,0.161491 -0.807456,0.161491 -0.556247,0 -1.004834,-0.26018 -0.421671,-0.269152 -0.645965,-0.556247 -0.07177,-0.07177 -0.10766,-0.03589 -0.03589,0.03589 -0.03589,0.125604 v 0.502417 q 0,0.134576 -0.134576,0.134576 -0.134576,0 -0.134576,-0.134576 v -5.741909 q 0,-0.134576 -0.134576,-0.134576 h -0.628022 q -0.134576,0 -0.134576,-0.134576 0,-0.134576 0.134576,-0.134576 h 0.897174 q 0.134576,0 0.134576,0.134576 z"
         style="font-style:normal;font-variant:normal;font-weight:normal;font-stretch:normal;font-size:8.97173309px;font-family:'Nixie One';-inkscape-font-specification:'Nixie One';fill:#ffffff;fill-opacity:0.28070176;stroke-width:0.18691105"
         id="path889" />
      <path
         d="m 68.222078,-14.909258 q 0.78054,0 1.19324,-0.269152 0.421672,-0.278123 0.421672,-0.717738 0,-0.233265 -0.107661,-0.376813 -0.09869,-0.143548 -0.278124,-0.242237 -0.197378,-0.107661 -0.46653,-0.170463 -0.269152,-0.0628 -0.574191,-0.107661 -0.305039,-0.05383 -0.61905,-0.09869 -0.31401,-0.04486 -0.592134,-0.116632 -0.215322,-0.0628 -0.4127,-0.143548 -0.188406,-0.08972 -0.331954,-0.224293 -0.134576,-0.134576 -0.215321,-0.314011 -0.08075,-0.188406 -0.08075,-0.448587 0,-0.215321 0.116633,-0.421671 0.116632,-0.215322 0.340925,-0.376813 0.233265,-0.170463 0.56522,-0.269152 0.331954,-0.09869 0.771569,-0.09869 0.287095,0 0.529332,0.07177 0.251208,0.07177 0.448587,0.179435 0.206349,0.10766 0.349897,0.224293 0.15252,0.116632 0.233265,0.197378 0.08075,0.08972 0.107661,0.03589 0.03589,-0.05383 0.03589,-0.125604 v -0.35887 q 0,-0.134576 0.134576,-0.134576 0.134576,0 0.134576,0.134576 v 1.435478 q 0,0.134576 -0.134576,0.134576 -0.134576,0 -0.134576,-0.134576 v -0.448587 q -0.197378,-0.26018 -0.448587,-0.46653 -0.224293,-0.179435 -0.538304,-0.322983 -0.31401,-0.152519 -0.717738,-0.152519 -0.385785,0 -0.67288,0.08075 -0.287096,0.07177 -0.475502,0.197378 -0.188407,0.125604 -0.287096,0.287095 -0.08972,0.161491 -0.08972,0.331954 0,0.242237 0.08972,0.403728 0.09869,0.15252 0.269152,0.260181 0.197378,0.125604 0.46653,0.206349 0.269152,0.07177 0.574191,0.125605 0.305039,0.04486 0.61905,0.08972 0.314011,0.04486 0.601106,0.107661 0.224293,0.05383 0.4127,0.134576 0.197378,0.08075 0.340926,0.20635 0.143547,0.116632 0.224293,0.296067 0.08075,0.170463 0.08075,0.4127 0,0.538304 -0.475502,0.897173 -0.46653,0.358869 -1.408562,0.358869 -0.269152,0 -0.520361,-0.0628 -0.242237,-0.0628 -0.457558,-0.152519 -0.20635,-0.09869 -0.385785,-0.215322 -0.170463,-0.125604 -0.287095,-0.242237 -0.08972,-0.08972 -0.116633,-0.03589 -0.02692,0.05383 -0.02692,0.125605 v 0.358869 q 0,0.134576 -0.134576,0.134576 -0.134576,0 -0.134576,-0.134576 v -1.435477 q 0,-0.134576 0.134576,-0.134576 0.134576,0 0.134576,0.134576 v 0.448586 q 0.188406,0.269152 0.448587,0.475502 0.224293,0.179435 0.556247,0.322982 0.331954,0.143548 0.789513,0.143548 z"
         style="font-style:normal;font-variant:normal;font-weight:normal;font-stretch:normal;font-size:8.97173309px;font-family:'Nixie One';-inkscape-font-specification:'Nixie One';fill:#ffffff;fill-opacity:0.28070176;stroke-width:0.18691105"
         id="path891" />
    </g>
  </g>
  <g
     inkscape:label="Vrstva 1"
     inkscape:groupmode="layer"
     id="layer1"
     transform="translate(0,-270.54165)">
    <g
       aria-label="Herschel Labs"
       style="font-style:normal;font-weight:normal;font-size:7.51968002px;line-height:1.25;font-family:sans-serif;letter-spacing:0px;word-spacing:0px;fill:#ffffff;fill-opacity:1;stroke:none;stroke-width:0.18799201"
       id="text817">
      <path
         d="m 10.17314,279.35018 q 0,-0.13535 -0.135355,-0.13535 H 9.4963683 q -0.1353543,0 -0.1353543,-0.13536 0,-0.13535 0.1353543,-0.13535 h 1.7144867 q 0.135355,0 0.135355,0.13535 0,0.13536 -0.135355,0.13536 h -0.631653 q -0.135354,0 -0.135354,0.13535 v 5.50441 q 0,0.13535 0.135354,0.13535 h 0.631653 q 0.135355,0 0.135355,0.13536 0,0.13535 -0.135355,0.13535 H 9.4963683 q -0.1353543,0 -0.1353543,-0.13535 0,-0.13536 0.1353543,-0.13536 h 0.5414167 q 0.135355,0 0.135355,-0.13535 v -2.52661 q 0,-0.13536 -0.135355,-0.13536 H 6.4283386 q -0.1353543,0 -0.1353543,0.13536 v 2.52661 q 0,0.13535 0.1353543,0.13535 h 0.541417 q 0.1353543,0 0.1353543,0.13536 0,0.13535 -0.1353543,0.13535 H 5.2552684 q -0.1353542,0 -0.1353542,-0.13535 0,-0.13536 0.1353542,-0.13536 h 0.6316532 q 0.1353542,0 0.1353542,-0.13535 v -5.50441 q 0,-0.13535 -0.1353542,-0.13535 H 5.2552684 q -0.1353542,0 -0.1353542,-0.13536 0,-0.13535 0.1353542,-0.13535 h 1.7144872 q 0.1353543,0 0.1353543,0.13535 0,0.13536 -0.1353543,0.13536 h -0.541417 q -0.1353543,0 -0.1353543,0.13535 v 2.43638 q 0,0.13535 0.1353543,0.13535 h 3.6094464 q 0.135355,0 0.135355,-0.13535 z"
         style="font-style:normal;font-variant:normal;font-weight:normal;font-stretch:normal;font-size:9.02361679px;font-family:'Nixie One';-inkscape-font-specification:'Nixie One';fill:#ffffff;stroke-width:0.18799201"
         id="path844" />
      <path
         d="m 14.097567,285.08018 q 0.351921,0 0.613606,-0.0632 0.270709,-0.0722 0.460205,-0.17145 0.198519,-0.0993 0.333873,-0.20754 0.144378,-0.11731 0.243638,-0.20754 0.06316,-0.0541 0.108283,-0.0271 0.04512,0.018 0.09024,0.0632 0.09024,0.10829 -0.009,0.1895 -0.117307,0.10828 -0.288756,0.23461 -0.162425,0.11731 -0.388015,0.22559 -0.216567,0.0993 -0.505323,0.16243 -0.288756,0.0722 -0.658724,0.0722 -0.956503,0 -1.534015,-0.6497 -0.586535,-0.66775 -0.586535,-1.69644 0,-1.0287 0.586535,-1.69644 0.577512,-0.6497 1.534015,-0.6497 0.929433,0 1.524991,0.59555 0.595559,0.59556 0.595559,1.43476 v 0.13535 q 0,0.27071 -0.270708,0.27071 h -3.555305 q -0.153402,0 -0.135355,0.13536 0.05414,0.78505 0.505323,1.29037 0.514346,0.55947 1.335495,0.55947 z m -1.831794,-2.39126 q -0.01805,0.13535 0.126331,0.13535 h 3.41995 q 0.135355,0 0.135355,-0.13535 0,-0.72189 -0.532394,-1.23624 -0.52337,-0.52337 -1.317448,-0.52337 -0.821149,0 -1.335495,0.57752 -0.42411,0.47825 -0.496299,1.18209 z"
         style="font-style:normal;font-variant:normal;font-weight:normal;font-stretch:normal;font-size:9.02361679px;font-family:'Nixie One';-inkscape-font-specification:'Nixie One';fill:#ffffff;stroke-width:0.18799201"
         id="path846" />
      <path
         d="m 20.372646,280.92931 q -0.42411,0 -0.776031,0.12634 -0.351921,0.1173 -0.631653,0.31582 -0.279732,0.19852 -0.496299,0.45118 -0.207543,0.25266 -0.351921,0.50533 v 2.52661 q 0,0.13535 0.135354,0.13535 h 0.72189 q 0.135354,0 0.135354,0.13536 0,0.13535 -0.135354,0.13535 h -1.89496 q -0.135354,0 -0.135354,-0.13535 0,-0.13536 0.135354,-0.13536 h 0.631653 q 0.135355,0 0.135355,-0.13535 v -3.69969 q 0,-0.13535 -0.135355,-0.13535 h -0.631653 q -0.135354,0 -0.135354,-0.13535 0,-0.13536 0.135354,-0.13536 h 0.902362 q 0.135354,0 0.135354,0.13536 v 0.71286 q 0,0.0902 0.03609,0.11731 0.03609,0.0271 0.108284,-0.0541 0.162425,-0.1895 0.378992,-0.36997 0.216567,-0.18047 0.478251,-0.31583 0.270709,-0.14438 0.577512,-0.22559 0.315827,-0.0902 0.676771,-0.0902 h 0.442157 q 0.135355,0 0.135355,0.13535 v 1.12795 q 0,0.13536 -0.135355,0.13536 -0.135354,0 -0.135354,-0.13536 v -0.85724 q 0,-0.13536 -0.135354,-0.13536 z"
         style="font-style:normal;font-variant:normal;font-weight:normal;font-stretch:normal;font-size:9.02361679px;font-family:'Nixie One';-inkscape-font-specification:'Nixie One';fill:#ffffff;stroke-width:0.18799201"
         id="path848" />
      <path
         d="m 23.817976,285.08018 q 0.785055,0 1.200141,-0.27071 0.42411,-0.27973 0.42411,-0.72189 0,-0.23461 -0.108283,-0.37899 -0.09926,-0.14438 -0.279732,-0.24364 -0.19852,-0.10828 -0.469228,-0.17145 -0.270709,-0.0632 -0.577512,-0.10828 -0.306803,-0.0541 -0.622629,-0.0993 -0.315827,-0.0451 -0.595559,-0.11731 -0.216567,-0.0632 -0.415086,-0.14438 -0.189496,-0.0902 -0.333874,-0.22559 -0.135354,-0.13535 -0.216567,-0.31582 -0.08121,-0.1895 -0.08121,-0.45118 0,-0.21657 0.117307,-0.42411 0.117307,-0.21657 0.342897,-0.379 0.234614,-0.17144 0.568488,-0.2707 0.333874,-0.0993 0.776031,-0.0993 0.288756,0 0.532393,0.0722 0.252662,0.0722 0.451181,0.18047 0.207543,0.10828 0.351921,0.22559 0.153402,0.1173 0.234614,0.19852 0.08121,0.0902 0.108284,0.0361 0.03609,-0.0541 0.03609,-0.12633 v -0.36094 q 0,-0.13536 0.135354,-0.13536 0.135355,0 0.135355,0.13536 v 1.44378 q 0,0.13535 -0.135355,0.13535 -0.135354,0 -0.135354,-0.13535 v -0.45119 q -0.198519,-0.26168 -0.451181,-0.46922 -0.22559,-0.18048 -0.541417,-0.32485 -0.315826,-0.15341 -0.721889,-0.15341 -0.388016,0 -0.676771,0.0812 -0.288756,0.0722 -0.478252,0.19852 -0.189496,0.12633 -0.288756,0.28875 -0.09024,0.16243 -0.09024,0.33388 0,0.24363 0.09024,0.40606 0.09926,0.1534 0.270709,0.26168 0.198519,0.12633 0.469228,0.20755 0.270708,0.0722 0.577511,0.12633 0.306803,0.0451 0.62263,0.0902 0.315826,0.0451 0.604582,0.10829 0.225591,0.0541 0.415087,0.13535 0.198519,0.0812 0.342897,0.20754 0.144378,0.11731 0.22559,0.29778 0.08121,0.17145 0.08121,0.41509 0,0.54142 -0.478252,0.90236 -0.469228,0.36095 -1.416708,0.36095 -0.270708,0 -0.523369,-0.0632 -0.243638,-0.0632 -0.460205,-0.1534 -0.207543,-0.0993 -0.388015,-0.21657 -0.171449,-0.12633 -0.288756,-0.24363 -0.09024,-0.0902 -0.117307,-0.0361 -0.02707,0.0541 -0.02707,0.12633 v 0.36095 q 0,0.13535 -0.135354,0.13535 -0.135354,0 -0.135354,-0.13535 v -1.44378 q 0,-0.13536 0.135354,-0.13536 0.135354,0 0.135354,0.13536 v 0.45118 q 0.189496,0.27071 0.451181,0.47825 0.22559,0.18047 0.559464,0.32485 0.333874,0.14438 0.794078,0.14438 z"
         style="font-style:normal;font-variant:normal;font-weight:normal;font-stretch:normal;font-size:9.02361679px;font-family:'Nixie One';-inkscape-font-specification:'Nixie One';fill:#ffffff;stroke-width:0.18799201"
         id="path850" />
      <path
         d="m 28.787169,285.35089 q -0.956503,0 -1.534015,-0.6497 -0.586535,-0.65873 -0.586535,-1.69644 0,-1.03772 0.568488,-1.68742 0.568488,-0.65872 1.416708,-0.65872 0.893338,0 1.570109,0.67677 0.08121,0.0722 0.108284,0.0361 0.03609,-0.0361 0.03609,-0.12633 v -0.36094 q 0,-0.13536 0.135354,-0.13536 0.135355,0 0.135355,0.13536 v 1.44378 q 0,0.13535 -0.135355,0.13535 -0.135354,0 -0.135354,-0.13535 v -0.45119 q -0.216567,-0.27973 -0.451181,-0.46922 -0.586535,-0.47826 -1.263306,-0.47826 -0.730913,0 -1.227212,0.57752 -0.487275,0.58653 -0.487275,1.49792 0,0.94748 0.514346,1.51596 0.514346,0.55947 1.335495,0.55947 0.351921,0 0.613606,-0.0632 0.270709,-0.0722 0.460204,-0.17145 0.19852,-0.0993 0.333874,-0.20754 0.144378,-0.11731 0.243638,-0.20754 0.06317,-0.0541 0.108283,-0.0271 0.04512,0.018 0.09024,0.0632 0.09024,0.10829 -0.009,0.1895 -0.117307,0.10828 -0.288756,0.23461 -0.162425,0.11731 -0.388015,0.22559 -0.216567,0.0993 -0.505323,0.16243 -0.288756,0.0722 -0.658724,0.0722 z"
         style="font-style:normal;font-variant:normal;font-weight:normal;font-stretch:normal;font-size:9.02361679px;font-family:'Nixie One';-inkscape-font-specification:'Nixie One';fill:#ffffff;stroke-width:0.18799201"
         id="path852" />
      <path
         d="m 31.465633,284.98994 h 0.631653 q 0.135355,0 0.135355,-0.13535 v -5.50441 q 0,-0.13535 -0.135355,-0.13535 h -0.631653 q -0.135354,0 -0.135354,-0.13536 0,-0.13535 0.135354,-0.13535 h 0.902362 q 0.135354,0 0.135354,0.13535 v 2.31005 q 0,0.0902 0.0361,0.12633 0.03609,0.0361 0.108283,-0.0361 0.730913,-0.82115 1.615227,-0.82115 0.830173,0 1.290378,0.46922 0.469228,0.46021 0.469228,1.3355 v 2.39126 q 0,0.13535 0.135354,0.13535 h 0.631653 q 0.135354,0 0.135354,0.13536 0,0.13535 -0.135354,0.13535 H 35.07508 q -0.135354,0 -0.135354,-0.13535 0,-0.13536 0.135354,-0.13536 h 0.541417 q 0.135354,0 0.135354,-0.13535 v -2.39126 q 0,-0.76701 -0.397039,-1.146 -0.397039,-0.38802 -1.091858,-0.38802 -0.676771,0 -1.290377,0.61361 -0.261685,0.27071 -0.469228,0.60458 v 2.70709 q 0,0.13535 0.135354,0.13535 h 0.541417 q 0.135355,0 0.135355,0.13536 0,0.13535 -0.135355,0.13535 h -1.714487 q -0.135354,0 -0.135354,-0.13535 0,-0.13536 0.135354,-0.13536 z"
         style="font-style:normal;font-variant:normal;font-weight:normal;font-stretch:normal;font-size:9.02361679px;font-family:'Nixie One';-inkscape-font-specification:'Nixie One';fill:#ffffff;stroke-width:0.18799201"
         id="path854" />
      <path
         d="m 39.573422,285.08018 q 0.351921,0 0.613606,-0.0632 0.270708,-0.0722 0.460204,-0.17145 0.19852,-0.0993 0.333874,-0.20754 0.144378,-0.11731 0.243638,-0.20754 0.06316,-0.0541 0.108283,-0.0271 0.04512,0.018 0.09024,0.0632 0.09024,0.10829 -0.009,0.1895 -0.117307,0.10828 -0.288756,0.23461 -0.162425,0.11731 -0.388015,0.22559 -0.216567,0.0993 -0.505323,0.16243 -0.288756,0.0722 -0.658724,0.0722 -0.956503,0 -1.534015,-0.6497 -0.586535,-0.66775 -0.586535,-1.69644 0,-1.0287 0.586535,-1.69644 0.577512,-0.6497 1.534015,-0.6497 0.929433,0 1.524991,0.59555 0.595559,0.59556 0.595559,1.43476 v 0.13535 q 0,0.27071 -0.270709,0.27071 h -3.555305 q -0.153401,0 -0.135354,0.13536 0.05414,0.78505 0.505323,1.29037 0.514346,0.55947 1.335495,0.55947 z m -1.831794,-2.39126 q -0.01805,0.13535 0.12633,0.13535 h 3.419951 q 0.135354,0 0.135354,-0.13535 0,-0.72189 -0.532393,-1.23624 -0.52337,-0.52337 -1.317448,-0.52337 -0.821149,0 -1.335495,0.57752 -0.42411,0.47825 -0.496299,1.18209 z"
         style="font-style:normal;font-variant:normal;font-weight:normal;font-stretch:normal;font-size:9.02361679px;font-family:'Nixie One';-inkscape-font-specification:'Nixie One';fill:#ffffff;stroke-width:0.18799201"
         id="path856" />
      <path
         d="m 42.410293,285.26065 q -0.135354,0 -0.135354,-0.13535 0,-0.13536 0.135354,-0.13536 h 0.631653 q 0.135355,0 0.135355,-0.13535 v -5.50441 q 0,-0.13535 -0.135355,-0.13535 h -0.631653 q -0.135354,0 -0.135354,-0.13536 0,-0.13535 0.135354,-0.13535 h 0.902362 q 0.135354,0 0.135354,0.13535 v 5.77512 q 0,0.13535 0.135355,0.13535 h 0.631653 q 0.135354,0 0.135354,0.13536 0,0.13535 -0.135354,0.13535 z"
         style="font-style:normal;font-variant:normal;font-weight:normal;font-stretch:normal;font-size:9.02361679px;font-family:'Nixie One';-inkscape-font-specification:'Nixie One';fill:#ffffff;stroke-width:0.18799201"
         id="path858" />
      <path
         d="m 47.588723,285.26065 q -0.135355,0 -0.135355,-0.13535 0,-0.13536 0.135355,-0.13536 h 0.631653 q 0.135354,0 0.135354,-0.13535 v -5.50441 q 0,-0.13535 -0.135354,-0.13535 h -0.631653 q -0.135355,0 -0.135355,-0.13536 0,-0.13535 0.135355,-0.13535 h 1.985195 q 0.135354,0 0.135354,0.13535 0,0.13536 -0.135354,0.13536 h -0.812125 q -0.135355,0 -0.135355,0.13535 v 5.50441 q 0,0.13535 0.135355,0.13535 h 2.887557 q 0.135354,0 0.135354,-0.13535 v -0.9926 q 0,-0.13535 0.135355,-0.13535 0.135354,0 0.135354,0.13535 v 1.26331 q 0,0.13535 -0.135354,0.13535 z"
         style="font-style:normal;font-variant:normal;font-weight:normal;font-stretch:normal;font-size:9.02361679px;font-family:'Nixie One';-inkscape-font-specification:'Nixie One';fill:#ffffff;stroke-width:0.18799201"
         id="path860" />
      <path
         d="m 56.054002,283.04986 q 0,-0.13535 -0.135354,-0.13535 h -1.488897 q -0.785054,0 -1.164046,0.3068 -0.369968,0.30681 -0.369968,0.77603 0,0.47826 0.342897,0.78506 0.351921,0.29778 1.010645,0.29778 0.739937,0 1.344519,-0.60458 0.126331,-0.12633 0.243638,-0.27974 0.117307,-0.1534 0.216566,-0.33387 z m -1.407684,-2.39125 q 0.757984,0 1.218188,0.43313 0.460205,0.42411 0.460205,1.05576 v 2.70709 q 0,0.13535 0.135354,0.13535 h 0.631653 q 0.135355,0 0.135355,0.13536 0,0.13535 -0.135355,0.13535 h -0.902361 q -0.135355,0 -0.135355,-0.13535 v -0.50533 q 0,-0.0902 -0.03609,-0.12633 -0.03609,-0.0361 -0.108283,0.0361 -0.243638,0.3068 -0.658725,0.55946 -0.45118,0.26169 -1.001621,0.26169 -0.397039,0 -0.703842,-0.0993 -0.297779,-0.10829 -0.505323,-0.28876 -0.207543,-0.18047 -0.315826,-0.42411 -0.09926,-0.25266 -0.09926,-0.54142 0,-0.27973 0.117307,-0.52337 0.126331,-0.25266 0.360945,-0.43313 0.234614,-0.18047 0.568488,-0.28875 0.333873,-0.10829 0.757983,-0.10829 h 1.488897 q 0.135354,0 0.135354,-0.13535 v -0.36095 q 0,-0.25266 -0.108283,-0.47825 -0.09926,-0.22559 -0.288756,-0.38801 -0.180472,-0.16243 -0.442157,-0.25267 -0.261685,-0.0993 -0.568488,-0.0993 -0.541417,0 -0.911385,0.16243 -0.369968,0.1534 -0.550441,0.29778 -0.117307,0.0902 -0.189496,-0.0181 -0.08121,-0.10828 0.01805,-0.18047 0.243637,-0.19852 0.6497,-0.36095 0.406063,-0.17144 0.983574,-0.17144 z"
         style="font-style:normal;font-variant:normal;font-weight:normal;font-stretch:normal;font-size:9.02361679px;font-family:'Nixie One';-inkscape-font-specification:'Nixie One';fill:#ffffff;stroke-width:0.18799201"
         id="path862" />
      <path
         d="m 58.555942,283.86199 q 0.207543,0.36094 0.460204,0.61361 0.604582,0.60458 1.344519,0.60458 0.767007,0 1.236235,-0.54142 0.478252,-0.55044 0.478252,-1.57913 0,-0.92943 -0.568488,-1.43476 -0.568488,-0.50532 -1.59718,-0.50532 h -1.218188 q -0.135354,0 -0.135354,0.13535 z m 0,-3.2485 q 0,0.13535 0.135354,0.13535 h 1.218188 q 0.577512,0 1.028692,0.1534 0.451181,0.15341 0.757984,0.44216 0.315827,0.27973 0.478252,0.69482 0.171449,0.40606 0.171449,0.92041 0,0.56849 -0.144378,1.01967 -0.135355,0.44215 -0.397039,0.74896 -0.261685,0.29778 -0.631654,0.4602 -0.360944,0.16243 -0.812125,0.16243 -0.559464,0 -1.010645,-0.26169 -0.42411,-0.27071 -0.649701,-0.55946 -0.07219,-0.0722 -0.108283,-0.0361 -0.03609,0.0361 -0.03609,0.12633 v 0.50533 q 0,0.13535 -0.135355,0.13535 -0.135354,0 -0.135354,-0.13535 v -5.77512 q 0,-0.13535 -0.135354,-0.13535 h -0.631653 q -0.135355,0 -0.135355,-0.13536 0,-0.13535 0.135355,-0.13535 h 0.902361 q 0.135355,0 0.135355,0.13535 z"
         style="font-style:normal;font-variant:normal;font-weight:normal;font-stretch:normal;font-size:9.02361679px;font-family:'Nixie One';-inkscape-font-specification:'Nixie One';fill:#ffffff;stroke-width:0.18799201"
         id="path864" />
      <path
         d="m 65.446459,285.08018 q 0.785055,0 1.200141,-0.27071 0.42411,-0.27973 0.42411,-0.72189 0,-0.23461 -0.108283,-0.37899 -0.09926,-0.14438 -0.279732,-0.24364 -0.19852,-0.10828 -0.469228,-0.17145 -0.270709,-0.0632 -0.577512,-0.10828 -0.306803,-0.0541 -0.622629,-0.0993 -0.315827,-0.0451 -0.595559,-0.11731 -0.216567,-0.0632 -0.415086,-0.14438 -0.189496,-0.0902 -0.333874,-0.22559 -0.135355,-0.13535 -0.216567,-0.31582 -0.08121,-0.1895 -0.08121,-0.45118 0,-0.21657 0.117307,-0.42411 0.117307,-0.21657 0.342898,-0.379 0.234614,-0.17144 0.568488,-0.2707 0.333873,-0.0993 0.776031,-0.0993 0.288755,0 0.532393,0.0722 0.252661,0.0722 0.451181,0.18047 0.207543,0.10828 0.351921,0.22559 0.153401,0.1173 0.234614,0.19852 0.08121,0.0902 0.108283,0.0361 0.0361,-0.0541 0.0361,-0.12633 v -0.36094 q 0,-0.13536 0.135354,-0.13536 0.135354,0 0.135354,0.13536 v 1.44378 q 0,0.13535 -0.135354,0.13535 -0.135354,0 -0.135354,-0.13535 v -0.45119 q -0.19852,-0.26168 -0.451181,-0.46922 -0.22559,-0.18048 -0.541417,-0.32485 -0.315827,-0.15341 -0.721889,-0.15341 -0.388016,0 -0.676772,0.0812 -0.288755,0.0722 -0.478251,0.19852 -0.189496,0.12633 -0.288756,0.28875 -0.09024,0.16243 -0.09024,0.33388 0,0.24363 0.09024,0.40606 0.09926,0.1534 0.270709,0.26168 0.198519,0.12633 0.469228,0.20755 0.270708,0.0722 0.577511,0.12633 0.306803,0.0451 0.62263,0.0902 0.315826,0.0451 0.604582,0.10829 0.22559,0.0541 0.415086,0.13535 0.19852,0.0812 0.342898,0.20754 0.144378,0.11731 0.22559,0.29778 0.08121,0.17145 0.08121,0.41509 0,0.54142 -0.478252,0.90236 -0.469228,0.36095 -1.416708,0.36095 -0.270708,0 -0.52337,-0.0632 -0.243637,-0.0632 -0.460204,-0.1534 -0.207543,-0.0993 -0.388016,-0.21657 -0.171448,-0.12633 -0.288755,-0.24363 -0.09024,-0.0902 -0.117307,-0.0361 -0.02707,0.0541 -0.02707,0.12633 v 0.36095 q 0,0.13535 -0.135354,0.13535 -0.135355,0 -0.135355,-0.13535 v -1.44378 q 0,-0.13536 0.135355,-0.13536 0.135354,0 0.135354,0.13536 v 0.45118 q 0.189496,0.27071 0.451181,0.47825 0.22559,0.18047 0.559464,0.32485 0.333874,0.14438 0.794078,0.14438 z"
         style="font-style:normal;font-variant:normal;font-weight:normal;font-stretch:normal;font-size:9.02361679px;font-family:'Nixie One';-inkscape-font-specification:'Nixie One';fill:#ffffff;stroke-width:0.18799201"
         id="path866" />
    </g>
  </g>
</svg>
